# xmcd
#
# Track frame offsets:
#	150
#	11748
#	24284
#	41515
#	53799
#	68134
#	83232
#	95768
#	108320
#	121038
#	140176
#	154973
#	176760
#
# Disc length: 2482 seconds
#
# Revision: 1
# Processed by: cddbd v1.5.1PL2 Copyright (c) Steve Scherf et al.
# Submitted via: audiograbber 1.83.01
#
DISCID=ac09b00d
DTITLE=Francine Michaels - ''Remembrance Of You''
DYEAR=2006
DGENRE=Bluegrass
TTITLE0=Daisy A Day 
TTITLE1=My Arms
TTITLE2=Southern Flavor 
TTITLE3=To Daddy 
TTITLE4=I Closed My Hearts Door
TTITLE5=In The Garden 
TTITLE6=Travelin' The Highway Home
TTITLE7=Turkey Knob
TTITLE8=Following My Lord
TTITLE9=You Are My Flower
TTITLE10=Remembrance Of You
TTITLE11=Washington County 
TTITLE12=Toy Heart
EXTD=
EXTT0=
EXTT1=
EXTT2=
EXTT3=
EXTT4=
EXTT5=
EXTT6=
EXTT7=
EXTT8=
EXTT9=
EXTT10=
EXTT11=
EXTT12=
PLAYORDER=
